<svg width="24" height="25" viewBox="0 0 24 25" fill="none" xmlns="http://www.w3.org/2000/svg">
<g id="vuesax/outline/search-normal">
<g id="search-normal">
<path id="Vector" d="M11.5 22.6914C5.85 22.6914 1.25 18.0914 1.25 12.4414C1.25 6.79141 5.85 2.19141 11.5 2.19141C17.15 2.19141 21.75 6.79141 21.75 12.4414C21.75 18.0914 17.15 22.6914 11.5 22.6914ZM11.5 3.69141C6.67 3.69141 2.75 7.62141 2.75 12.4414C2.75 17.2614 6.67 21.1914 11.5 21.1914C16.33 21.1914 20.25 17.2614 20.25 12.4414C20.25 7.62141 16.33 3.69141 11.5 3.69141Z" fill="#B49345"/>
<path id="Vector_2" d="M22.0014 23.6918C21.8114 23.6918 21.6214 23.6218 21.4714 23.4718L19.4714 21.4718C19.1814 21.1818 19.1814 20.7018 19.4714 20.4118C19.7614 20.1218 20.2414 20.1218 20.5314 20.4118L22.5314 22.4118C22.8214 22.7018 22.8214 23.1818 22.5314 23.4718C22.3814 23.6218 22.1914 23.6918 22.0014 23.6918Z" fill="#B49345"/>
</g>
</g>
</svg>
